Ruda-Black.ufo
<glyph name="parenleft" format="2">
  <advance width="349"/>
  <unicode hex="0028"/>
  <outline>
    <contour>
      <point x="274" y="-124" type="curve"/>
      <point x="340" y="-36" type="line"/>
      <point x="250" y="27"/>
      <point x="205" y="164"/>
      <point x="205" y="344" type="curve" smooth="yes"/>
      <point x="205" y="525"/>
      <point x="250" y="664"/>
      <point x="340" y="725" type="curve"/>
      <point x="274" y="813" type="line"/>
      <point x="158" y="749"/>
      <point x="47" y="615"/>
      <point x="47" y="344" type="curve" smooth="yes"/>
      <point x="47" y="77"/>
      <point x="158" y="-61"/>
    </contour>
  </outline>
</glyph>
<glyph name="Z" format="2">
  <advance width="579"/>
  <unicode hex="005A"/>
  <anchor x="290" y="0" name="bottom"/>
  <anchor x="290" y="703" name="top"/>
  <outline>
    <contour>
      <point x="24" y="0" type="line"/>
      <point x="553" y="0" type="line"/>
      <point x="553" y="134" type="line"/>
      <point x="217" y="126" type="line"/>
      <point x="217" y="132" type="line"/>
      <point x="548" y="582" type="line"/>
      <point x="548" y="703" type="line"/>
      <point x="45" y="703" type="line"/>
      <point x="45" y="569" type="line"/>
      <point x="362" y="578" type="line"/>
      <point x="362" y="571" type="line"/>
      <point x="24" y="124" type="line"/>
    </contour>
  </outline>
</glyph>
<glyph name="bracketright" format="2">
  <advance width="342"/>
  <unicode hex="005D"/>
  <outline>
    <contour>
      <point x="19" y="-124" type="line"/>
      <point x="258" y="-124" type="line"/>
      <point x="258" y="791" type="line"/>
      <point x="19" y="791" type="line"/>
      <point x="19" y="676" type="line"/>
      <point x="114" y="678" type="line"/>
      <point x="114" y="-11" type="line"/>
      <point x="19" y="-10" type="line"/>
    </contour>
  </outline>
</glyph>
<glyph name="asciitilde" format="2">
  <advance width="672"/>
  <unicode hex="007E"/>
  <outline>
    <contour>
      <point x="467" y="190" type="curve" smooth="yes"/>
      <point x="535" y="190"/>
      <point x="580" y="235"/>
      <point x="599" y="258" type="curve"/>
      <point x="553" y="341" type="line"/>
      <point x="530" y="329"/>
      <point x="500" y="315"/>
      <point x="474" y="315" type="curve" smooth="yes"/>
      <point x="400" y="315"/>
      <point x="282" y="384"/>
      <point x="202" y="384" type="curve" smooth="yes"/>
      <point x="134" y="384"/>
      <point x="95" y="341"/>
      <point x="72" y="317" type="curve"/>
      <point x="119" y="234" type="line"/>
      <point x="136" y="243"/>
      <point x="171" y="259"/>
      <point x="197" y="259" type="curve" smooth="yes"/>
      <point x="271" y="259"/>
      <point x="387" y="190"/>
    </contour>
  </outline>
</glyph>
<glyph name="yen" format="2">
  <advance width="595"/>
  <unicode hex="00A5"/>
  <outline>
    <contour>
      <point x="46" y="286" type="line"/>
      <point x="544" y="286" type="line"/>
      <point x="544" y="384" type="line"/>
      <point x="436" y="384" type="line"/>
      <point x="589" y="703" type="line"/>
      <point x="422" y="703" type="line"/>
      <point x="299" y="384" type="line"/>
      <point x="293" y="384" type="line"/>
      <point x="170" y="703" type="line"/>
      <point x="3" y="703" type="line"/>
      <point x="156" y="384" type="line"/>
      <point x="46" y="384" type="line"/>
    </contour>
    <contour>
      <point x="216" y="0" type="line"/>
      <point x="375" y="0" type="line"/>
      <point x="374" y="129" type="line"/>
      <point x="544" y="129" type="line"/>
      <point x="544" y="227" type="line"/>
      <point x="46" y="227" type="line"/>
      <point x="46" y="129" type="line"/>
      <point x="217" y="129" type="line"/>
    </contour>
  </outline>
</glyph>
<glyph name="uni00AD" format="2">
  <advance width="287"/>
  <unicode hex="00AD"/>
  <outline>
    <contour>
      <point x="17" y="261" type="line"/>
      <point x="275" y="261" type="line"/>
      <point x="275" y="393" type="line"/>
      <point x="17" y="393" type="line"/>
    </contour>
  </outline>
</glyph>
<glyph name="idieresis" format="2">
  <advance width="323"/>
  <unicode hex="00EF"/>
  <outline>
    <contour>
      <point x="-15" y="668" type="line"/>
      <point x="132" y="668" type="line"/>
      <point x="132" y="776" type="line"/>
      <point x="-15" y="776" type="line"/>
    </contour>
    <contour>
      <point x="190" y="668" type="line"/>
      <point x="337" y="668" type="line"/>
      <point x="337" y="776" type="line"/>
      <point x="190" y="776" type="line"/>
    </contour>
    <component base="dotlessi"/>
  </outline>
</glyph>
<glyph name="divide" format="2">
  <advance width="647"/>
  <unicode hex="00F7"/>
  <outline>
    <contour>
      <point x="30" y="227" type="line"/>
      <point x="617" y="227" type="line"/>
      <point x="617" y="360" type="line"/>
      <point x="30" y="360" type="line"/>
    </contour>
    <contour>
      <point x="234" y="0" type="line"/>
      <point x="409" y="0" type="line"/>
      <point x="409" y="134" type="line"/>
      <point x="234" y="134" type="line"/>
    </contour>
    <contour>
      <point x="234" y="454" type="line"/>
      <point x="409" y="454" type="line"/>
      <point x="409" y="588" type="line"/>
      <point x="234" y="588" type="line"/>
    </contour>
  </outline>
</glyph>
<glyph name="dotlessi" format="2">
  <advance width="303"/>
  <unicode hex="0131"/>
  <anchor x="152" y="0" name="bottom"/>
  <anchor x="208" y="10" name="ogonek"/>
  <anchor x="152" y="588" name="top"/>
  <outline>
    <contour>
      <point x="74" y="0" type="line"/>
      <point x="229" y="0" type="line"/>
      <point x="229" y="588" type="line"/>
      <point x="74" y="588" type="line"/>
    </contour>
  </outline>
</glyph>
<glyph name="Ldotaccent" format="2">
  <advance width="504"/>
  <unicode hex="013F"/>
  <outline>
    <contour>
      <point x="325" y="350" type="line"/>
      <point x="494" y="350" type="line"/>
      <point x="494" y="484" type="line"/>
      <point x="325" y="484" type="line"/>
    </contour>
    <component base="L"/>
  </outline>
</glyph>
<glyph name="ldot" format="2">
  <advance width="486"/>
  <unicode hex="0140"/>
  <outline>
    <contour>
      <point x="320" y="340" type="line"/>
      <point x="483" y="340" type="line"/>
      <point x="483" y="484" type="line"/>
      <point x="320" y="484" type="line"/>
    </contour>
    <component base="l" xOffset="9"/>
  </outline>
</glyph>
<glyph name="ka-cy" format="2">
  <advance width="638"/>
  <unicode hex="043A"/>
  <anchor x="320" y="0" name="bottom"/>
  <anchor x="302" y="588" name="top"/>
  <outline>
    <contour>
      <point x="451" y="0" type="line"/>
      <point x="641" y="0" type="line"/>
      <point x="395" y="294" type="line"/>
      <point x="395" y="299" type="line"/>
      <point x="617" y="588" type="line"/>
      <point x="430" y="588" type="line"/>
      <point x="235" y="293" type="line"/>
    </contour>
    <contour>
      <point x="238" y="0" type="line"/>
      <point x="234" y="293" type="line"/>
      <point x="238" y="588" type="line"/>
      <point x="83" y="588" type="line"/>
      <point x="87" y="293" type="line"/>
      <point x="83" y="0" type="line"/>
    </contour>
  </outline>
</glyph>
<glyph name="ghestroke-cy" format="2">
  <advance width="575"/>
  <unicode hex="0493"/>
  <outline>
    <contour>
      <point x="35" y="201" type="line"/>
      <point x="221" y="202" type="line"/>
      <point x="455" y="201" type="line"/>
      <point x="455" y="335" type="line"/>
      <point x="35" y="335" type="line"/>
    </contour>
    <component base="ge-cy" xOffset="46"/>
  </outline>
</glyph>
<glyph name="zhedescender-cy" format="2">
  <advance width="974"/>
  <unicode hex="0497"/>
  <outline>
    <contour>
      <point x="872" y="-155" type="line"/>
      <point x="999" y="-155" type="line"/>
      <point x="999" y="74" type="line"/>
      <point x="852" y="74" type="line"/>
    </contour>
    <component base="zhe-cy"/>
  </outline>
</glyph>
<glyph name="endescender-cy" format="2">
  <advance width="706"/>
  <unicode hex="04A3"/>
  <outline>
    <contour>
      <point x="574" y="-155" type="line"/>
      <point x="701" y="-155" type="line"/>
      <point x="701" y="74" type="line"/>
      <point x="554" y="74" type="line"/>
    </contour>
    <component base="en-cy"/>
  </outline>
</glyph>
<glyph name="Chedescender-cy" format="2">
  <advance width="677"/>
  <unicode hex="04B6"/>
  <outline>
    <contour>
      <point x="521" y="-156" type="line"/>
      <point x="634" y="-156" type="line"/>
      <point x="634" y="74" type="line"/>
      <point x="494" y="74" type="line"/>
    </contour>
    <component base="Che-cy" xOffset="-24"/>
  </outline>
</glyph>
<glyph name="quoteleft" format="2">
  <advance width="235"/>
  <unicode hex="2018"/>
  <outline>
    <contour>
      <point x="49" y="445" type="curve"/>
      <point x="180" y="445" type="line"/>
      <point x="180" y="445"/>
      <point x="174" y="525"/>
      <point x="174" y="568" type="curve" smooth="yes"/>
      <point x="174" y="627"/>
      <point x="183" y="670"/>
      <point x="198" y="700" type="curve"/>
      <point x="120" y="746" type="line"/>
      <point x="85" y="708"/>
      <point x="44" y="631"/>
      <point x="44" y="520" type="curve" smooth="yes"/>
      <point x="44" y="484"/>
      <point x="49" y="445"/>
    </contour>
  </outline>
</glyph>
<glyph name="bullet" format="2">
  <advance width="406"/>
  <unicode hex="2022"/>
  <outline>
    <contour>
      <point x="205" y="254" type="curve" smooth="yes"/>
      <point x="281" y="254"/>
      <point x="358" y="295"/>
      <point x="358" y="414" type="curve" smooth="yes"/>
      <point x="358" y="529"/>
      <point x="281" y="570"/>
      <point x="205" y="570" type="curve" smooth="yes"/>
      <point x="126" y="570"/>
      <point x="48" y="530"/>
      <point x="48" y="414" type="curve" smooth="yes"/>
      <point x="48" y="295"/>
      <point x="126" y="254"/>
    </contour>
  </outline>
</glyph>
<glyph name="leftArrow" format="2">
  <advance width="831"/>
  <unicode hex="2190"/>
  <outline>
    <contour>
      <point x="591" y="0" type="line"/>
      <point x="748" y="0" type="line"/>
      <point x="748" y="703" type="line"/>
      <point x="48" y="703" type="line"/>
      <point x="48" y="546" type="line"/>
      <point x="481" y="550" type="line"/>
      <point x="99" y="172" type="line"/>
      <point x="214" y="60" type="line"/>
      <point x="595" y="445" type="line"/>
    </contour>
  </outline>
</glyph>
<glyph name="brevecyrillic-cy" format="2">
  <advance width="358"/>
  <guideline x="358" y="703" angle="90"/>
  <anchor x="182" y="588" name="_top"/>
  <anchor x="182" y="705" name="base"/>
  <outline>
    <contour>
      <point x="182" y="722" type="curve" smooth="yes"/>
      <point x="301" y="722"/>
      <point x="347" y="761"/>
      <point x="358" y="869" type="curve"/>
      <point x="279" y="874" type="line"/>
      <point x="266" y="818"/>
      <point x="239" y="801"/>
      <point x="182" y="801" type="curve" smooth="yes"/>
      <point x="123" y="801"/>
      <point x="92" y="818"/>
      <point x="79" y="874" type="curve"/>
      <point x="0" y="869" type="line"/>
      <point x="8" y="768"/>
      <point x="55" y="722"/>
    </contour>
  </outline>
</glyph>
<glyph name="gravecomb.case" format="2">
  <anchor x="162" y="703" name="_top"/>
  <anchor x="162" y="860" name="top"/>
  <outline>
    <contour>
      <point x="309" y="751" type="line"/>
      <point x="323" y="835" type="line"/>
      <point x="21" y="906" type="line"/>
      <point x="1" y="793" type="line"/>
    </contour>
  </outline>
</glyph>
